<svg width="508" height="419" viewBox="0 0 508 419" fill="none" xmlns="http://www.w3.org/2000/svg">
<path d="M236.832 206.005L237.413 207.265L238.725 204.726L236.251 204.746L236.832 206.005Z" fill="#2D6A8B"/>
<path fill-rule="evenodd" clip-rule="evenodd" d="M230.184 195.63L136.309 259.055L42.9071 322.16L23.3259 335.39L25.9074 340.987L36.3507 333.932L40.4811 342.888L30.0377 349.944L32.6192 355.541L52.2004 342.312L145.602 279.206L239.004 216.101L239.736 212.303L236.1 209.804L237.413 207.265L236.832 206.005L236.251 204.746L234.25 204.446L235.347 199.257L230.184 195.63Z" fill="#2D6A8B"/>
<path d="M52.2004 342.312L66.4426 362.057L145.602 279.206L52.2004 342.312Z" fill="#2D6A8B"/>
<path d="M136.309 259.055L36.4975 297.123L42.9071 322.16L136.309 259.055Z" fill="#2D6A8B"/>
<path d="M261.958 193.99L418.92 300.02L419.6 300.698L455.725 329.427L439.999 284.98L455.046 303.829L492.917 361.822L436.835 356.663L416.93 351.903L451.659 341.223L413.115 319.511L412.313 319.188L255.351 213.158L257.687 211.782L257.415 207.167L261.263 206.813L259.067 202.376L262.744 200.883L261.958 193.99Z" fill="#2D6A8B"/>
<path d="M235.492 145.4C235.492 156.867 232.826 165 227.492 169.8C222.292 174.6 213.626 177 201.492 177H161.492V37H199.092C210.959 37 219.626 39.4 225.092 44.2C230.692 49 233.492 57 233.492 68.2V79.6C233.492 89.8667 229.826 97.6 222.492 102.8C231.159 107.6 235.492 115.8 235.492 127.4V145.4ZM216.092 66.4C216.092 61.3333 214.892 57.6667 212.492 55.4C210.226 53.1333 206.559 52 201.492 52H178.892V96.2H201.492C205.626 96.2 209.092 94.8667 211.892 92.2C214.692 89.5333 216.092 86 216.092 81.6V66.4ZM218.092 125.6C218.092 121.2 216.759 117.733 214.092 115.2C211.426 112.533 207.892 111.2 203.492 111.2H178.892V162H203.292C208.359 162 212.092 160.867 214.492 158.6C216.892 156.2 218.092 152.467 218.092 147.4V125.6ZM287.1 141.6L279.3 177H261.5L295.3 37H318.3L351.5 177H333.7L326.1 141.6H287.1ZM322.9 126.6L306.5 50.2L290.3 126.6H322.9ZM123.888 337.6V402H106.488V262H123.888V322.8H165.088V262H182.488V402H165.088V337.6H123.888ZM290.896 368C290.896 379.333 287.763 387.867 281.496 393.6C275.363 399.2 266.496 402 254.896 402H249.896C238.296 402 229.363 399.2 223.096 393.6C216.963 387.867 213.896 379.333 213.896 368V262H231.296V371.8C231.296 375.933 232.829 379.467 235.896 382.4C238.963 385.333 242.963 386.8 247.896 386.8H256.896C261.829 386.8 265.829 385.333 268.896 382.4C271.963 379.467 273.496 375.933 273.496 371.8V262H290.896V368ZM397.504 370.4C397.504 381.867 394.837 390 389.504 394.8C384.304 399.6 375.637 402 363.504 402H323.504V262H361.104C372.971 262 381.637 264.4 387.104 269.2C392.704 274 395.504 282 395.504 293.2V304.6C395.504 314.867 391.837 322.6 384.504 327.8C393.171 332.6 397.504 340.8 397.504 352.4V370.4ZM378.104 291.4C378.104 286.333 376.904 282.667 374.504 280.4C372.237 278.133 368.571 277 363.504 277H340.904V321.2H363.504C367.637 321.2 371.104 319.867 373.904 317.2C376.704 314.533 378.104 311 378.104 306.6V291.4ZM380.104 350.6C380.104 346.2 378.771 342.733 376.104 340.2C373.437 337.533 369.904 336.2 365.504 336.2H340.904V387H365.304C370.371 387 374.104 385.867 376.504 383.6C378.904 381.2 380.104 377.467 380.104 372.4V350.6Z" fill="white"/>
</svg>
